<svg width="1440" height="122" viewBox="0 0 1440 122" fill="none" xmlns="http://www.w3.org/2000/svg">
<path d="M0 7.10168C243 13.2034 429.75 16.2542 429.75 15.2373C429.75 14.4237 570.75 12.1864 641.25 11.1695L859.5 15.2373L1255.5 20.322L1440 17.2712V121L909 104.729L1059.75 115.915L641.25 112.864L308.25 104.729L87.75 112.864L105.75 104.729L0 112.864V7.10168Z" fill="#774E31" stroke="#774E31"/>
<path d="M1440 114.898C1197 108.797 1010.25 105.746 1010.25 106.763C1010.25 107.576 869.25 109.814 798.75 110.831L580.5 106.763L184.5 101.678L0 104.729V1.00001L531 17.2712L380.25 6.08475L798.75 9.1356L1131.75 17.2712L1352.25 9.1356L1334.25 17.2712L1440 9.1356V114.898Z" fill="#774E31" stroke="#774E31"/>
<rect y="1" width="1440" height="37.1223" fill="#774E31"/>
</svg>
